<mxfile host="app.diagrams.net" agent="Mozilla/5.0 (Windows NT 10.0; Win64; x64) AppleWebKit/537.36 (KHTML, like Gecko) Chrome/139.0.0.0 Safari/537.36" version="28.1.2">
  <diagram name="PÃ¡gina-1" id="Zpiotkh49-DxZ_2MdcIc">
    <mxGraphModel dx="946" dy="631" grid="1" gridSize="10" guides="1" tooltips="1" connect="1" arrows="1" fold="1" page="1" pageScale="1" pageWidth="827" pageHeight="1169" math="0" shadow="0">
      <root>
        <mxCell id="0" />
        <mxCell id="1" parent="0" />
        <mxCell id="yIBsAMwh8j3s1yGklYIc-1" value="Libro" style="swimlane;fontStyle=1;align=center;verticalAlign=top;childLayout=stackLayout;horizontal=1;startSize=26;horizontalStack=0;resizeParent=1;resizeParentMax=0;resizeLast=0;collapsible=1;marginBottom=0;whiteSpace=wrap;html=1;fillColor=#0050ef;fontColor=#ffffff;strokeColor=#001DBC;" vertex="1" parent="1">
          <mxGeometry x="40" y="140" width="160" height="250" as="geometry" />
        </mxCell>
        <mxCell id="yIBsAMwh8j3s1yGklYIc-2" value="+ autor: str&lt;div&gt;+ titulo: str&lt;/div&gt;&lt;div&gt;+ genero: str&lt;/div&gt;&lt;div&gt;+ pag: int&lt;/div&gt;" style="text;strokeColor=none;fillColor=none;align=left;verticalAlign=top;spacingLeft=4;spacingRight=4;overflow=hidden;rotatable=0;points=[[0,0.5],[1,0.5]];portConstraint=eastwest;whiteSpace=wrap;html=1;" vertex="1" parent="yIBsAMwh8j3s1yGklYIc-1">
          <mxGeometry y="26" width="160" height="64" as="geometry" />
        </mxCell>
        <mxCell id="yIBsAMwh8j3s1yGklYIc-3" value="" style="line;strokeWidth=1;fillColor=none;align=left;verticalAlign=middle;spacingTop=-1;spacingLeft=3;spacingRight=3;rotatable=0;labelPosition=right;points=[];portConstraint=eastwest;strokeColor=inherit;" vertex="1" parent="yIBsAMwh8j3s1yGklYIc-1">
          <mxGeometry y="90" width="160" height="8" as="geometry" />
        </mxCell>
        <mxCell id="yIBsAMwh8j3s1yGklYIc-4" value="+ __init__(autor: str, titulo: str, genero: str, pag: int)&lt;div&gt;+ get_autor():str&lt;/div&gt;&lt;div&gt;+ set_autor(autor:str)&lt;/div&gt;&lt;div&gt;+ get_titulo():str&lt;/div&gt;&lt;div&gt;+ set_titulo(titulo:str)&lt;/div&gt;&lt;div&gt;+ get_genero(): str&lt;/div&gt;&lt;div&gt;+ set_genero(genero:str)&lt;/div&gt;&lt;div&gt;+ get_pag(): int&lt;/div&gt;&lt;div&gt;+ set_pag(pag:int)&lt;/div&gt;" style="text;strokeColor=none;fillColor=none;align=left;verticalAlign=top;spacingLeft=4;spacingRight=4;overflow=hidden;rotatable=0;points=[[0,0.5],[1,0.5]];portConstraint=eastwest;whiteSpace=wrap;html=1;" vertex="1" parent="yIBsAMwh8j3s1yGklYIc-1">
          <mxGeometry y="98" width="160" height="152" as="geometry" />
        </mxCell>
      </root>
    </mxGraphModel>
  </diagram>
</mxfile>
